<svg xmlns="http://www.w3.org/2000/svg" viewBox="0 0 189.83 51.02"><path d="M37.89 47.94h6.72c.86 0 1.55-.69 1.55-1.55V4.63c0-.85-.7-1.55-1.55-1.55h-6.72c-.85 0-1.55.69-1.55 1.55v41.76c0 .86.7 1.55 1.55 1.55zm17.22 0h6.72c.85 0 1.55-.69 1.55-1.55V20.11l19.99 27.17c.11.15.24.28.4.39l.3.16.15.05c.16.04.29.06.42.06h6.46c.85 0 1.55-.69 1.55-1.55V4.63c0-.85-.69-1.55-1.55-1.55h-6.72c-.85 0-1.55.69-1.55 1.55v26.03L62.87 3.78c-.05-.07-.09-.12-.13-.17a.996.996 0 0 1-.1-.11c-.06-.05-.08-.07-.11-.1-.07-.05-.09-.07-.12-.08L62 3.14l-.29-.05-.08-.01h-6.52c-.86 0-1.55.69-1.55 1.55v41.76c0 .86.7 1.55 1.55 1.55zm-53.56 0h26.86c.85 0 1.55-.7 1.55-1.55v-6.72c0-.86-.69-1.55-1.55-1.55H9.82V4.63c0-.85-.7-1.55-1.55-1.55H1.55C.7 3.08 0 3.78 0 4.63v41.76c0 .4.15.78.43 1.07.34.33.72.48 1.12.48zm99-.42c.28.26.66.42 1.06.42h26.86c.85 0 1.55-.7 1.55-1.55v-6.72c0-.86-.69-1.55-1.55-1.55h-18.58v-7.69h18.58c.85 0 1.55-.7 1.55-1.55v-6.72c0-.85-.69-1.55-1.55-1.55h-18.58v-7.69h18.58c.85 0 1.55-.7 1.55-1.55V4.63c0-.86-.69-1.55-1.55-1.55h-26.86c-.41 0-.79.16-1.08.44-.32.34-.47.71-.47 1.11v41.76c0 .4.15.78.43 1.07l.06.06zM164.32 0c-14.07 0-25.51 11.44-25.51 25.51s11.44 25.51 25.51 25.51c2.7 0 5.37-.42 7.93-1.26l1.52-.53c.54-.18.84-.76.67-1.29l-1.46-4.5c-.17-.52-.74-.84-1.29-.65l-1.53.54c-1.88.61-3.84.92-5.83.92-10.33 0-18.74-8.41-18.74-18.74S154 6.77 164.33 6.77c10.33 0 18.74 8.41 18.74 18.74 0 2.11-.4 4.32-1.18 6.57-.57 1.63-1.89 2.96-2.95 2.96-1.44 0-2.61-1.17-2.61-2.61V14.39c0-.56-.46-1.02-1.02-1.02h-4.73c-.54 0-.99.43-1.02.97l-.02.4-.35-.19c-1.8-.98-3.85-1.49-5.91-1.49-6.87 0-12.45 5.59-12.45 12.46s5.59 12.46 12.45 12.46c2.37 0 4.67-.67 6.67-1.94l.25-.16.12.27a9.386 9.386 0 0 0 8.62 5.68c4.02 0 7.78-3.01 9.35-7.5 1.04-2.97 1.56-5.93 1.56-8.81C189.83 11.44 178.38 0 164.32 0zm5.12 25.51c0 3.39-2.76 6.16-6.16 6.16s-6.16-2.76-6.16-6.16 2.76-6.16 6.16-6.16 6.16 2.77 6.16 6.16z" fill="#fff"/></svg>